<?xml version="1.0" encoding="UTF-8"?>
<svg viewBox="0 0 545 206" version="1.1"
  xmlns="http://www.w3.org/2000/svg"
  xmlns:xlink="http://www.w3.org/1999/xlink">
  <g stroke="none" stroke-width="1" fill="none" fill-rule="evenodd">
    <path d="M30.869,116.197 L30.869,115.661 C30.869,109.497 28.19,106.549 23.967,106.549 C19.613,106.549 17,109.698 17,115.594 L17,116.13 C17,122.093 19.613,125.108 23.967,125.108 C28.457,125.108 30.869,121.959 30.869,116.197 Z M17.334,128.056 L17.334,133.483 L5.342,133.483 L5.342,83.031 L17.334,83.031 L17.334,103.668 C19.344,100.318 22.963,97.504 28.256,97.504 C36.43,97.504 43.063,103.668 43.063,115.661 L43.063,116.197 C43.063,128.257 36.43,134.288 28.19,134.288 C22.963,134.288 19.076,131.809 17.334,128.056 L17.334,128.056 Z" fill="#0A0B09"></path>
    <path d="M71.672,111.976 C71.471,107.755 69.393,105.41 65.508,105.41 C61.889,105.41 59.41,107.755 58.807,111.976 L71.672,111.976 Z M46.545,116.398 L46.545,115.862 C46.545,104.606 54.922,97.504 65.508,97.504 C75.088,97.504 83.33,102.998 83.33,115.594 L83.33,118.743 L58.674,118.743 C59.008,123.366 61.688,126.046 65.977,126.046 C69.93,126.046 71.604,124.237 72.074,121.892 L83.33,121.892 C82.258,129.798 76.16,134.288 65.574,134.288 C54.586,134.288 46.545,127.855 46.545,116.398 L46.545,116.398 Z" fill="#0A0B09"></path>
    <path d="M90.096,122.227 L90.096,106.616 L85.875,106.616 L85.875,98.442 L90.096,98.442 L90.096,91.139 L102.088,91.139 L102.088,98.442 L108.99,98.442 L108.99,106.616 L102.088,106.616 L102.088,121.088 C102.088,123.634 103.361,124.773 105.639,124.773 C106.979,124.773 107.984,124.572 109.057,124.17 L109.057,133.282 C107.516,133.685 105.238,134.288 102.424,134.288 C94.518,134.288 90.096,130.468 90.096,122.227" fill="#0A0B09"></path>
    <path d="M116.158,122.227 L116.158,106.616 L111.938,106.616 L111.938,98.442 L116.158,98.442 L116.158,91.139 L128.15,91.139 L128.15,98.442 L135.053,98.442 L135.053,106.616 L128.15,106.616 L128.15,121.088 C128.15,123.634 129.424,124.773 131.701,124.773 C133.041,124.773 134.047,124.572 135.119,124.17 L135.119,133.282 C133.578,133.685 131.301,134.288 128.486,134.288 C120.58,134.288 116.158,130.468 116.158,122.227" fill="#0A0B09"></path>
    <path d="M163.861,111.976 C163.66,107.755 161.584,105.41 157.697,105.41 C154.08,105.41 151.6,107.755 150.998,111.976 L163.861,111.976 Z M138.736,116.398 L138.736,115.862 C138.736,104.606 147.111,97.504 157.697,97.504 C167.279,97.504 175.52,102.998 175.52,115.594 L175.52,118.743 L150.863,118.743 C151.199,123.366 153.879,126.046 158.166,126.046 C162.119,126.046 163.795,124.237 164.264,121.892 L175.52,121.892 C174.447,129.798 168.352,134.288 157.764,134.288 C146.775,134.288 138.736,127.855 138.736,116.398 L138.736,116.398 Z" fill="#0A0B09"></path>
    <path d="M180.678,98.442 L192.67,98.442 L192.67,105.41 C194.881,100.184 198.566,97.906 203.994,97.973 L203.994,109.162 C196.691,108.961 192.67,111.239 192.67,116.867 L192.67,133.483 L180.678,133.483 L180.678,98.442" fill="#0A0B09"></path>
    <path d="M222.551,98.442 L234.545,98.442 L234.545,103.802 C236.42,100.452 240.105,97.504 245.533,97.504 C250.156,97.504 253.373,99.514 255.047,103.333 C258.063,99.246 262.217,97.504 266.639,97.504 C273.271,97.504 278.096,101.792 278.096,110.569 L278.096,133.483 L266.102,133.483 L266.102,112.579 C266.102,109.028 264.361,107.286 261.613,107.286 C258.396,107.286 256.254,109.363 256.254,113.182 L256.254,133.483 L244.395,133.483 L244.395,112.579 C244.395,109.028 242.652,107.286 239.904,107.286 C236.689,107.286 234.545,109.363 234.545,113.182 L234.545,133.483 L222.551,133.483 L222.551,98.442" fill="#0A0B09"></path>
    <path d="M309.184,116.197 L309.184,115.661 C309.184,109.765 306.838,106.482 302.281,106.482 C297.793,106.482 295.314,109.631 295.314,115.527 L295.314,116.063 C295.314,122.093 297.658,125.376 302.281,125.376 C306.771,125.376 309.184,122.026 309.184,116.197 Z M283.053,116.398 L283.053,115.862 C283.053,104.606 291.428,97.504 302.281,97.504 C313.068,97.504 321.377,104.405 321.377,115.527 L321.377,116.063 C321.377,127.453 313.002,134.288 302.215,134.288 C291.428,134.288 283.053,127.721 283.053,116.398 L283.053,116.398 Z" fill="#0A0B09"></path>
    <path d="M326.602,98.442 L338.596,98.442 L338.596,105.41 C340.807,100.184 344.492,97.906 349.918,97.973 L349.918,109.162 C342.615,108.961 338.596,111.239 338.596,116.867 L338.596,133.483 L326.602,133.483 L326.602,98.442" fill="#0A0B09"></path>
    <path d="M357.555,122.227 L357.555,106.616 L353.334,106.616 L353.334,98.442 L357.555,98.442 L357.555,91.139 L369.549,91.139 L369.549,98.442 L376.449,98.442 L376.449,106.616 L369.549,106.616 L369.549,121.088 C369.549,123.634 370.822,124.773 373.1,124.773 C374.439,124.773 375.445,124.572 376.516,124.17 L376.516,133.282 C374.975,133.685 372.697,134.288 369.883,134.288 C361.977,134.288 357.555,130.468 357.555,122.227" fill="#0A0B09"></path>
    <path d="M406.197,114.857 L406.197,114.388 C406.197,109.564 403.719,106.482 399.297,106.482 C394.807,106.482 392.395,109.631 392.395,114.455 L392.395,114.991 C392.395,119.815 394.941,122.897 399.229,122.897 C403.518,122.897 406.197,119.815 406.197,114.857 Z M380.066,133.483 L391.992,133.483 C392.529,136.029 394.07,138.04 398.426,138.04 C403.719,138.04 405.861,135.024 405.861,130.669 L405.861,125.309 C404.053,128.659 400.234,131.741 395.008,131.741 C386.834,131.741 380.133,125.711 380.133,114.924 L380.133,114.388 C380.133,104.07 386.768,97.504 395.008,97.504 C400.568,97.504 403.852,99.849 405.861,103.4 L405.861,98.442 L417.855,98.442 L417.855,130.535 C417.855,140.987 410.955,146.481 398.426,146.481 C386.498,146.481 381.004,141.457 380.066,133.483 L380.066,133.483 Z" fill="#0A0B09"></path>
    <path d="M444.922,121.222 L444.922,119.078 L441.773,119.078 C436.949,119.078 434.805,120.016 434.805,122.897 C434.805,124.907 436.145,126.18 438.959,126.18 C442.377,126.18 444.922,124.237 444.922,121.222 Z M422.945,123.768 C422.945,115.527 429.914,112.311 441.572,112.311 L444.922,112.311 L444.922,111.507 C444.922,108.157 444.119,105.946 440.299,105.946 C437.016,105.946 435.811,107.889 435.543,110.1 L424.285,110.1 C424.822,101.658 431.455,97.504 441.037,97.504 C450.684,97.504 456.848,101.457 456.848,110.77 L456.848,133.483 L445.189,133.483 L445.189,129.396 C443.516,131.942 440.434,134.288 434.805,134.288 C428.508,134.288 422.945,131.206 422.945,123.768 L422.945,123.768 Z" fill="#0A0B09"></path>
    <path d="M487.869,114.857 L487.869,114.388 C487.869,109.564 485.391,106.482 480.969,106.482 C476.479,106.482 474.066,109.631 474.066,114.455 L474.066,114.991 C474.066,119.815 476.613,122.897 480.9,122.897 C485.189,122.897 487.869,119.815 487.869,114.857 Z M461.738,133.483 L473.664,133.483 C474.201,136.029 475.742,138.04 480.098,138.04 C485.391,138.04 487.533,135.024 487.533,130.669 L487.533,125.309 C485.725,128.659 481.906,131.741 476.68,131.741 C468.506,131.741 461.805,125.711 461.805,114.924 L461.805,114.388 C461.805,104.07 468.439,97.504 476.68,97.504 C482.24,97.504 485.523,99.849 487.533,103.4 L487.533,98.442 L499.527,98.442 L499.527,130.535 C499.527,140.987 492.627,146.481 480.098,146.481 C468.17,146.481 462.676,141.457 461.738,133.483 L461.738,133.483 Z" fill="#0A0B09"></path>
    <path d="M529.877,111.976 C529.676,107.755 527.6,105.41 523.713,105.41 C520.096,105.41 517.615,107.755 517.014,111.976 L529.877,111.976 Z M504.752,116.398 L504.752,115.862 C504.752,104.606 513.127,97.504 523.713,97.504 C533.295,97.504 541.535,102.998 541.535,115.594 L541.535,118.743 L516.879,118.743 C517.215,123.366 519.895,126.046 524.182,126.046 C528.135,126.046 529.811,124.237 530.279,121.892 L541.535,121.892 C540.463,129.798 534.367,134.288 523.779,134.288 C512.791,134.288 504.752,127.855 504.752,116.398 L504.752,116.398 Z" fill="#0A0B09"></path>
    <path d="M3.465,174.398 L3.465,173.862 C3.465,162.204 11.84,155.504 22.158,155.504 C30.734,155.504 38.641,159.256 39.311,169.909 L28.055,169.909 C27.52,166.626 25.91,164.816 22.426,164.816 C18.205,164.816 15.727,167.832 15.727,173.729 L15.727,174.264 C15.727,180.361 18.072,183.51 22.627,183.51 C25.979,183.51 28.322,181.5 28.725,177.681 L39.512,177.681 C39.178,186.525 33.215,192.287 21.891,192.287 C11.438,192.287 3.465,186.19 3.465,174.398" fill="#0A0B09"></path>
    <path d="M68.656,174.197 L68.656,173.661 C68.656,167.765 66.311,164.481 61.756,164.481 C57.266,164.481 54.787,167.631 54.787,173.527 L54.787,174.063 C54.787,180.093 57.133,183.376 61.756,183.376 C66.244,183.376 68.656,180.026 68.656,174.197 Z M42.525,174.398 L42.525,173.862 C42.525,162.605 50.9,155.504 61.756,155.504 C72.543,155.504 80.852,162.405 80.852,173.527 L80.852,174.063 C80.852,185.453 72.475,192.287 61.688,192.287 C50.9,192.287 42.525,185.722 42.525,174.398 L42.525,174.398 Z" fill="#0A0B09"></path>
    <path d="M86.076,156.442 L98.068,156.442 L98.068,163.41 C100.279,158.184 103.965,155.906 109.391,155.973 L109.391,167.162 C102.088,166.961 98.068,169.239 98.068,174.867 L98.068,191.483 L86.076,191.483 L86.076,156.442" fill="#0A0B09"></path>
    <path d="M140.277,174.197 L140.277,173.661 C140.277,167.497 137.598,164.549 133.377,164.549 C129.021,164.549 126.408,167.698 126.408,173.594 L126.408,174.13 C126.408,180.093 129.021,183.108 133.377,183.108 C137.867,183.108 140.277,179.959 140.277,174.197 Z M114.75,156.442 L126.744,156.442 L126.744,161.668 C128.754,158.317 132.373,155.504 137.666,155.504 C145.84,155.504 152.473,161.668 152.473,173.661 L152.473,174.197 C152.473,186.257 145.84,192.287 137.598,192.287 C132.305,192.287 128.486,189.809 126.744,186.324 L126.744,203.209 L114.75,203.209 L114.75,156.442 L114.75,156.442 Z" fill="#0A0B09"></path>
    <path d="M182.086,174.197 L182.086,173.661 C182.086,167.765 179.74,164.481 175.184,164.481 C170.695,164.481 168.217,167.631 168.217,173.527 L168.217,174.063 C168.217,180.093 170.561,183.376 175.184,183.376 C179.674,183.376 182.086,180.026 182.086,174.197 Z M155.955,174.398 L155.955,173.862 C155.955,162.605 164.33,155.504 175.184,155.504 C185.971,155.504 194.279,162.405 194.279,173.527 L194.279,174.063 C194.279,185.453 185.904,192.287 175.117,192.287 C164.33,192.287 155.955,185.722 155.955,174.398 L155.955,174.398 Z" fill="#0A0B09"></path>
    <path d="M199.504,156.442 L211.498,156.442 L211.498,163.41 C213.709,158.184 217.395,155.906 222.82,155.973 L222.82,167.162 C215.518,166.961 211.498,169.239 211.498,174.867 L211.498,191.483 L199.504,191.483 L199.504,156.442" fill="#0A0B09"></path>
    <path d="M247.477,179.222 L247.477,177.078 L244.328,177.078 C239.504,177.078 237.359,178.017 237.359,180.897 C237.359,182.907 238.699,184.181 241.514,184.181 C244.932,184.181 247.477,182.237 247.477,179.222 Z M225.5,181.769 C225.5,173.527 232.469,170.311 244.127,170.311 L247.477,170.311 L247.477,169.507 C247.477,166.157 246.674,163.946 242.854,163.946 C239.57,163.946 238.365,165.889 238.098,168.1 L226.84,168.1 C227.377,159.658 234.01,155.504 243.592,155.504 C253.238,155.504 259.402,159.457 259.402,168.77 L259.402,191.483 L247.744,191.483 L247.744,187.396 C246.07,189.942 242.988,192.287 237.359,192.287 C231.063,192.287 225.5,189.205 225.5,181.769 L225.5,181.769 Z" fill="#0A0B09"></path>
    <path d="M267.51,180.228 L267.51,164.616 L263.289,164.616 L263.289,156.442 L267.51,156.442 L267.51,149.139 L279.502,149.139 L279.502,156.442 L286.404,156.442 L286.404,164.616 L279.502,164.616 L279.502,179.088 C279.502,181.634 280.775,182.773 283.053,182.773 C284.393,182.773 285.398,182.572 286.471,182.17 L286.471,191.282 C284.93,191.685 282.652,192.287 279.838,192.287 C271.932,192.287 267.51,188.469 267.51,180.228" fill="#0A0B09"></path>
    <path d="M292.299,191.483 L304.291,191.483 L304.291,156.442 L292.299,156.442 L292.299,191.483 Z M291.695,146.928 C291.695,143.376 294.51,140.696 298.262,140.696 C302.014,140.696 304.895,143.376 304.895,146.928 C304.895,150.479 302.014,153.092 298.262,153.092 C294.51,153.092 291.695,150.479 291.695,146.928 L291.695,146.928 Z" fill="#0A0B09"></path>
    <path d="M335.984,174.197 L335.984,173.661 C335.984,167.765 333.639,164.481 329.082,164.481 C324.594,164.481 322.115,167.631 322.115,173.527 L322.115,174.063 C322.115,180.093 324.459,183.376 329.082,183.376 C333.572,183.376 335.984,180.026 335.984,174.197 Z M309.854,174.398 L309.854,173.862 C309.854,162.605 318.229,155.504 329.082,155.504 C339.869,155.504 348.178,162.405 348.178,173.527 L348.178,174.063 C348.178,185.453 339.803,192.287 329.016,192.287 C318.229,192.287 309.854,185.722 309.854,174.398 L309.854,174.398 Z" fill="#0A0B09"></path>
    <path d="M353.402,156.442 L365.395,156.442 L365.395,162.069 C367.271,158.452 371.09,155.504 376.92,155.504 C383.688,155.504 388.377,159.725 388.377,168.703 L388.377,191.483 L376.383,191.483 L376.383,171.115 C376.383,167.162 374.842,165.219 371.359,165.219 C367.807,165.219 365.395,167.363 365.395,171.852 L365.395,191.483 L353.402,191.483 L353.402,156.442" fill="#0A0B09"></path>
    <path d="M52.134,48.851 L74.521,61.232 L74.528,30.373 L52.134,17.419 L52.134,48.851 Z M28.259,2.791 L52.711,14.051 L29.712,30.372 L29.704,61.232 L5.342,49.826 L5.342,19.236 L28.259,2.791 L28.259,2.791 Z" fill="#42B38C"></path>
  </g>
</svg>
